<svg width="128" height="128" viewBox="0 0 256 256" fill="none" xmlns="http://www.w3.org/2000/svg">
<g clip-path="url(#clip0_2_10)">
<rect width="256" height="256" rx="20" fill="#DCD7D7"/>
<path d="M234.011 118.901L224.409 133.555L107.993 42.6011C106.53 41.4581 104.673 40.9431 102.83 41.1694L97.9726 41.7658L110.627 25.5684C113.008 22.522 117.407 21.9818 120.453 24.362L232.907 112.221C234.956 113.822 235.436 116.726 234.011 118.901Z" fill="#121212"/>
<path d="M220.609 139.911L208.485 158.412L89.8977 65.7622C88.4347 64.6192 86.5776 64.1042 84.7349 64.3304L79.8772 64.9269L92.532 48.7295C94.9122 45.683 99.3113 45.1429 102.358 47.523L220.609 139.911Z" fill="#121212"/>
<path fill-rule="evenodd" clip-rule="evenodd" d="M74.4366 71.8905L21.8835 139.155C20.1834 141.331 20.5692 144.474 22.7453 146.174L134.664 233.615C143.953 240.872 157.472 238.562 163.825 228.633L204.685 164.768L84.2623 70.6841C81.2159 68.3039 76.8168 68.8441 74.4366 71.8905ZM110.062 143.863L86.2623 174.325C84.5622 176.501 84.948 179.643 87.124 181.344L134.257 218.168C136.433 219.868 139.575 219.482 141.275 217.306L148.143 208.515C149.843 206.339 149.457 203.197 147.281 201.497L118.486 179C116.31 177.3 115.924 174.158 117.624 171.982L141.424 141.519C143.124 139.343 142.738 136.201 140.562 134.501L91.7625 96.3746C89.5864 94.6745 86.4442 95.0604 84.7441 97.2364L47.9201 144.369C46.22 146.545 46.6058 149.687 48.7818 151.387L67.6265 166.11C69.8026 167.811 72.9448 167.425 74.6449 165.249L81.5127 156.458C83.2128 154.282 82.827 151.14 80.651 149.44L77.6433 147.09C75.4672 145.39 75.0814 142.248 76.7815 140.072L87.5567 126.28C89.2568 124.104 92.399 123.718 94.575 125.418L109.2 136.845C111.376 138.545 111.762 141.687 110.062 143.863Z" fill="#121212"/>
</g>
<defs>
<clipPath id="clip0_2_10">
<rect width="256" height="256" fill="white"/>
</clipPath>
</defs>
</svg>
